<?xml version="1.0" standalone="no"?>
<!DOCTYPE svg PUBLIC "-//W3C//DTD SVG 20010904//EN"
 "http://www.w3.org/TR/2001/REC-SVG-20010904/DTD/svg10.dtd">
<svg version="1.0" xmlns="http://www.w3.org/2000/svg"
 width="600.000000pt" height="600.000000pt" viewBox="0 0 600.000000 600.000000"
 preserveAspectRatio="xMidYMid meet">
<metadata>
Created by potrace 1.11, written by Peter Selinger 2001-2013
</metadata>
<g transform="translate(0.000000,600.000000) scale(0.100000,-0.100000)"
fill="#000000" stroke="none">
<path d="M4606 5008 c-117 -238 -230 -469 -251 -512 -20 -44 -63 -134 -95
-200 -63 -132 -189 -402 -225 -481 -12 -27 -32 -72 -45 -100 -27 -59 -60 -133
-88 -195 -11 -25 -29 -65 -40 -90 -11 -25 -68 -157 -127 -295 -59 -137 -113
-263 -120 -280 -7 -16 -43 -104 -80 -195 -36 -91 -70 -174 -75 -185 -13 -27
-105 -262 -142 -360 -17 -44 -38 -100 -48 -125 -26 -69 -133 -360 -182 -497
-23 -68 -46 -123 -50 -123 -4 0 -10 10 -14 23 -29 93 -190 485 -291 706 -69
151 -254 523 -321 646 -21 39 -55 102 -76 140 -21 39 -47 84 -57 102 -19 30
-19 61 -17 960 3 850 5 932 20 979 46 134 122 183 353 228 130 25 137 26 207
33 l66 6 1 118 0 119 -992 0 -993 0 1 -114 c0 -63 3 -117 5 -119 3 -3 28 -7
55 -11 91 -10 251 -57 353 -102 118 -52 176 -118 203 -229 13 -58 20 -3470 7
-3565 -26 -184 -128 -271 -350 -296 -29 -3 -64 -7 -78 -10 -14 -2 -61 -6 -105
-10 -44 -3 -82 -8 -85 -11 -2 -2 -5 -56 -5 -119 l-1 -114 1833 0 c1007 0 1834
3 1836 8 3 4 8 48 11 97 4 50 9 120 11 158 3 37 7 97 10 135 7 96 14 196 20
277 11 169 16 233 19 280 3 28 7 95 11 150 4 55 9 116 10 135 4 42 7 130 6
148 -1 9 -30 12 -115 11 l-115 -1 -18 -46 c-57 -154 -259 -519 -407 -737 -113
-166 -182 -235 -271 -268 -69 -26 -137 -45 -185 -53 -14 -3 -32 -7 -40 -9 -51
-14 -322 -26 -340 -15 -6 4 -1 29 14 71 13 35 54 150 91 254 124 353 459 1251
504 1350 5 11 42 103 82 205 40 102 76 191 82 198 5 6 7 12 4 12 -5 0 7 32 53
135 9 22 59 141 110 265 52 124 104 250 117 280 14 30 30 69 38 85 55 127 75
175 75 183 0 5 7 15 15 22 8 7 15 19 15 27 0 8 11 38 24 66 13 29 31 68 39 87
21 49 75 167 98 214 10 22 19 46 19 53 0 7 5 13 10 13 6 0 10 6 10 13 0 8 16
46 35 86 19 39 35 73 35 75 0 4 93 198 226 475 52 107 93 195 92 196 -6 6
-156 75 -162 75 -3 0 -102 -195 -220 -432z m-2172 -3129 c127 -270 376 -847
376 -872 0 -14 -209 4 -290 24 -146 37 -213 110 -245 269 -4 19 -9 238 -11
485 l-4 450 63 -126 c34 -69 84 -172 111 -230z"/>
</g>
</svg>
